<svg width="512" height="512" viewBox="0 0 512 512" fill="none" xmlns="http://www.w3.org/2000/svg">
<mask id="path-2-outside-1_3632_51843" maskUnits="userSpaceOnUse" x="120.891" y="11" width="295" height="490" fill="black">
<rect fill="white" x="120.891" y="11" width="295" height="490"/>
<path fill-rule="evenodd" clip-rule="evenodd" d="M141.114 309.18C141.114 329.181 141.051 347.252 141.219 365.32C141.235 366.936 142.319 369.264 143.631 370.035C159.388 379.319 175.28 388.372 192.484 398.259C192.484 378.487 192.548 360.215 192.366 341.943C192.35 340.386 191.072 338.191 189.725 337.396C174.186 328.21 158.519 319.236 141.114 309.18M191.441 475.503C192.059 473.834 192.4 473.341 192.402 472.845C192.457 460.536 191.253 448.07 192.811 435.957C194.752 420.871 188.943 412.525 175.545 406.56C163.982 401.41 153.354 394.165 141.106 387.156C141.106 406.938 141.016 425.067 141.249 443.194C141.273 444.974 142.863 447.449 144.447 448.383C159.812 457.45 175.329 466.256 191.441 475.503M395.455 153.362C378.053 163.377 362.137 172.461 346.345 181.753C344.99 182.548 343.655 184.704 343.64 186.241C343.453 204.519 343.52 222.799 343.52 242.755C361.012 232.693 377.116 223.509 393.082 214.094C394.355 213.346 395.341 211.002 395.355 209.391C395.513 191.32 395.455 173.244 395.455 153.362M208.623 476.198C225.989 466.172 242.069 456.949 258.044 447.55C259.206 446.866 260.265 444.912 260.277 443.537C260.424 425.242 260.375 406.944 260.375 388.729C259.018 388.564 258.367 388.265 258.003 388.47C242.499 397.275 226.989 406.071 211.595 415.061C210.211 415.868 208.764 417.979 208.748 419.498C208.552 437.802 208.623 456.109 208.623 476.198M319.743 256.479C302.78 246.703 286.706 237.263 270.374 228.288C268.659 227.349 265.104 228.586 262.95 229.788C248.071 238.115 233.328 246.686 218.555 255.204C195.637 268.418 172.73 281.65 149.68 294.958C150.541 295.87 150.852 296.395 151.315 296.663C162.178 302.998 173.679 308.457 183.772 315.838C195.458 324.384 204.794 323.773 217.212 316.081C250.457 295.494 284.778 276.639 319.743 256.479M149.069 61.8044C155.98 65.8481 161.967 69.4003 168 72.8742C221.803 103.863 275.6 134.863 329.467 165.744C331.916 167.148 335.855 168.973 337.672 167.986C354.045 159.088 370.097 149.601 387.262 139.7C382.217 136.767 378.426 134.544 374.616 132.351C318.633 100.111 262.66 67.8514 206.616 35.7172C204.205 34.3347 200.305 32.5801 198.5 33.5651C182.115 42.4965 166.043 51.9997 149.069 61.8044M395.445 232.7C394.109 232.567 393.78 232.426 393.596 232.532C333.021 267.327 272.449 302.128 211.935 337.033C210.505 337.858 208.817 339.818 208.8 341.265C208.588 359.797 208.661 378.334 208.661 396.641C210.062 396.89 210.403 397.068 210.582 396.964C271.164 362.183 331.751 327.411 392.229 292.451C393.892 291.491 395.28 288.55 395.307 286.513C395.545 268.651 395.445 250.784 395.445 232.7M327.902 242.836C327.902 225.19 327.421 209.276 328.108 193.413C328.447 185.576 325.565 181.706 318.928 177.931C264.004 146.668 209.321 114.983 154.557 83.4378C150.55 81.1271 146.493 78.9025 141.08 75.8654C141.08 94.3763 141.284 111.323 140.957 128.257C140.857 133.374 142.449 136.166 146.96 138.732C185.843 160.85 224.574 183.24 263.337 205.567C284.38 217.687 305.401 229.845 327.902 242.836M251.859 217.347C226.615 202.794 202.684 188.996 178.752 175.204C162.758 165.991 146.825 156.67 130.717 147.658C126.617 145.365 124.829 142.872 124.892 137.899C125.202 113.28 125.202 88.6535 124.906 64.035C124.845 58.8085 126.651 56.1669 131.107 53.6721C152.581 41.6468 173.9 29.3473 195.103 16.8559C198.936 14.598 201.594 14.2652 205.643 16.6091C272.215 55.1388 338.934 93.4139 405.459 132.026C408.115 133.567 410.717 137.859 410.736 140.887C411.06 191.808 410.87 242.731 411.109 293.654C411.136 299.077 408.837 301.475 404.6 303.902C363.815 327.238 323.187 350.842 282.345 374.08C277.506 376.833 275.93 379.804 276.016 385.242C276.353 406.5 276.018 427.77 276.277 449.03C276.336 453.812 274.969 456.548 270.672 458.956C248.957 471.121 227.536 483.81 205.758 495.857C203.074 497.343 198.163 497.396 195.501 495.922C173.98 484 152.849 471.375 131.352 459.409C126.494 456.706 124.878 453.802 124.904 448.304C125.135 398.221 125.133 348.136 124.898 298.053C124.873 292.497 126.716 289.697 131.476 286.985C169.632 265.26 207.603 243.217 245.624 221.261C247.298 220.294 248.904 219.207 251.859 217.347"/>
</mask>
<path fill-rule="evenodd" clip-rule="evenodd" d="M141.114 309.18C141.114 329.181 141.051 347.252 141.219 365.32C141.235 366.936 142.319 369.264 143.631 370.035C159.388 379.319 175.28 388.372 192.484 398.259C192.484 378.487 192.548 360.215 192.366 341.943C192.35 340.386 191.072 338.191 189.725 337.396C174.186 328.21 158.519 319.236 141.114 309.18M191.441 475.503C192.059 473.834 192.4 473.341 192.402 472.845C192.457 460.536 191.253 448.07 192.811 435.957C194.752 420.871 188.943 412.525 175.545 406.56C163.982 401.41 153.354 394.165 141.106 387.156C141.106 406.938 141.016 425.067 141.249 443.194C141.273 444.974 142.863 447.449 144.447 448.383C159.812 457.45 175.329 466.256 191.441 475.503M395.455 153.362C378.053 163.377 362.137 172.461 346.345 181.753C344.99 182.548 343.655 184.704 343.64 186.241C343.453 204.519 343.52 222.799 343.52 242.755C361.012 232.693 377.116 223.509 393.082 214.094C394.355 213.346 395.341 211.002 395.355 209.391C395.513 191.32 395.455 173.244 395.455 153.362M208.623 476.198C225.989 466.172 242.069 456.949 258.044 447.55C259.206 446.866 260.265 444.912 260.277 443.537C260.424 425.242 260.375 406.944 260.375 388.729C259.018 388.564 258.367 388.265 258.003 388.47C242.499 397.275 226.989 406.071 211.595 415.061C210.211 415.868 208.764 417.979 208.748 419.498C208.552 437.802 208.623 456.109 208.623 476.198M319.743 256.479C302.78 246.703 286.706 237.263 270.374 228.288C268.659 227.349 265.104 228.586 262.95 229.788C248.071 238.115 233.328 246.686 218.555 255.204C195.637 268.418 172.73 281.65 149.68 294.958C150.541 295.87 150.852 296.395 151.315 296.663C162.178 302.998 173.679 308.457 183.772 315.838C195.458 324.384 204.794 323.773 217.212 316.081C250.457 295.494 284.778 276.639 319.743 256.479M149.069 61.8044C155.98 65.8481 161.967 69.4003 168 72.8742C221.803 103.863 275.6 134.863 329.467 165.744C331.916 167.148 335.855 168.973 337.672 167.986C354.045 159.088 370.097 149.601 387.262 139.7C382.217 136.767 378.426 134.544 374.616 132.351C318.633 100.111 262.66 67.8514 206.616 35.7172C204.205 34.3347 200.305 32.5801 198.5 33.5651C182.115 42.4965 166.043 51.9997 149.069 61.8044M395.445 232.7C394.109 232.567 393.78 232.426 393.596 232.532C333.021 267.327 272.449 302.128 211.935 337.033C210.505 337.858 208.817 339.818 208.8 341.265C208.588 359.797 208.661 378.334 208.661 396.641C210.062 396.89 210.403 397.068 210.582 396.964C271.164 362.183 331.751 327.411 392.229 292.451C393.892 291.491 395.28 288.55 395.307 286.513C395.545 268.651 395.445 250.784 395.445 232.7M327.902 242.836C327.902 225.19 327.421 209.276 328.108 193.413C328.447 185.576 325.565 181.706 318.928 177.931C264.004 146.668 209.321 114.983 154.557 83.4378C150.55 81.1271 146.493 78.9025 141.08 75.8654C141.08 94.3763 141.284 111.323 140.957 128.257C140.857 133.374 142.449 136.166 146.96 138.732C185.843 160.85 224.574 183.24 263.337 205.567C284.38 217.687 305.401 229.845 327.902 242.836M251.859 217.347C226.615 202.794 202.684 188.996 178.752 175.204C162.758 165.991 146.825 156.67 130.717 147.658C126.617 145.365 124.829 142.872 124.892 137.899C125.202 113.28 125.202 88.6535 124.906 64.035C124.845 58.8085 126.651 56.1669 131.107 53.6721C152.581 41.6468 173.9 29.3473 195.103 16.8559C198.936 14.598 201.594 14.2652 205.643 16.6091C272.215 55.1388 338.934 93.4139 405.459 132.026C408.115 133.567 410.717 137.859 410.736 140.887C411.06 191.808 410.87 242.731 411.109 293.654C411.136 299.077 408.837 301.475 404.6 303.902C363.815 327.238 323.187 350.842 282.345 374.08C277.506 376.833 275.93 379.804 276.016 385.242C276.353 406.5 276.018 427.77 276.277 449.03C276.336 453.812 274.969 456.548 270.672 458.956C248.957 471.121 227.536 483.81 205.758 495.857C203.074 497.343 198.163 497.396 195.501 495.922C173.98 484 152.849 471.375 131.352 459.409C126.494 456.706 124.878 453.802 124.904 448.304C125.135 398.221 125.133 348.136 124.898 298.053C124.873 292.497 126.716 289.697 131.476 286.985C169.632 265.26 207.603 243.217 245.624 221.261C247.298 220.294 248.904 219.207 251.859 217.347" fill="#CCCCCC"/>
<path d="M141.219 365.32L137.22 365.357L137.22 365.359L141.219 365.32ZM143.631 370.035L145.661 366.589L145.659 366.588L143.631 370.035ZM192.484 398.259L190.49 401.727L196.484 405.171V398.259H192.484ZM192.366 341.943L196.366 341.903L196.366 341.903L192.366 341.943ZM189.725 337.396L187.69 340.839L187.692 340.841L189.725 337.396ZM192.402 472.845L188.402 472.828L188.402 472.83L192.402 472.845ZM192.811 435.957L196.779 436.467L196.779 436.467L192.811 435.957ZM175.545 406.56L173.918 410.214L173.918 410.214L175.545 406.56ZM141.106 387.156L143.093 383.684L137.106 380.259V387.156H141.106ZM141.249 443.194L137.25 443.246L137.25 443.247L141.249 443.194ZM144.447 448.383L146.48 444.939L146.479 444.938L144.447 448.383ZM346.345 181.753L348.37 185.202L348.374 185.2L346.345 181.753ZM343.64 186.241L339.64 186.2L339.64 186.2L343.64 186.241ZM343.52 242.755H339.52V249.67L345.514 246.222L343.52 242.755ZM393.082 214.094L391.055 210.646L391.051 210.649L393.082 214.094ZM395.355 209.391L391.355 209.356L391.355 209.357L395.355 209.391ZM258.044 447.55L256.017 444.101L256.015 444.102L258.044 447.55ZM260.277 443.537L264.277 443.571L264.277 443.569L260.277 443.537ZM260.375 388.729H264.375V385.185L260.856 384.758L260.375 388.729ZM258.003 388.47L256.038 384.986L256.027 384.992L258.003 388.47ZM211.595 415.061L213.609 418.517L213.612 418.515L211.595 415.061ZM208.748 419.498L212.748 419.541L212.748 419.539L208.748 419.498ZM270.374 228.288L272.301 224.783L272.296 224.781L270.374 228.288ZM262.95 229.788L261.001 226.296L260.996 226.298L262.95 229.788ZM218.555 255.204L220.553 258.669L220.554 258.669L218.555 255.204ZM149.68 294.958L147.68 291.493L143.299 294.023L146.77 297.702L149.68 294.958ZM151.315 296.663L153.33 293.208L153.321 293.203L151.315 296.663ZM183.772 315.838L181.411 319.067L181.411 319.067L183.772 315.838ZM217.212 316.081L215.107 312.68L215.106 312.68L217.212 316.081ZM168 72.8742L169.996 69.408L169.996 69.4078L168 72.8742ZM329.467 165.744L331.457 162.274L331.457 162.274L329.467 165.744ZM337.672 167.986L339.581 171.501L339.582 171.501L337.672 167.986ZM387.262 139.7L389.261 143.165L395.243 139.714L389.273 136.242L387.262 139.7ZM374.616 132.351L372.62 135.817L372.621 135.817L374.616 132.351ZM206.616 35.7172L208.606 32.2471L208.606 32.247L206.616 35.7172ZM198.5 33.5651L200.414 37.0772L200.415 37.0766L198.5 33.5651ZM393.596 232.532L391.605 229.062L391.603 229.063L393.596 232.532ZM211.935 337.033L209.936 333.568L209.936 333.568L211.935 337.033ZM208.8 341.265L204.8 341.216L204.8 341.219L208.8 341.265ZM208.661 396.641H204.661V399.994L207.962 400.58L208.661 396.641ZM210.582 396.964L208.59 393.495L208.58 393.501L208.571 393.507L210.582 396.964ZM392.229 292.451L390.23 288.986L390.228 288.988L392.229 292.451ZM395.307 286.513L399.307 286.567L399.307 286.567L395.307 286.513ZM328.108 193.413L324.111 193.24L324.111 193.24L328.108 193.413ZM318.928 177.931L316.95 181.407L316.95 181.408L318.928 177.931ZM154.557 83.4378L152.559 86.903L152.56 86.9039L154.557 83.4378ZM141.08 75.8654L143.038 72.377L137.08 69.0344V75.8654H141.08ZM140.957 128.257L144.956 128.335L144.956 128.335L140.957 128.257ZM146.96 138.732L148.938 135.255L148.937 135.255L146.96 138.732ZM263.337 205.567L261.341 209.033L261.341 209.033L263.337 205.567ZM178.752 175.204L180.749 171.739L180.749 171.738L178.752 175.204ZM130.717 147.658L132.67 144.167L132.67 144.167L130.717 147.658ZM124.892 137.899L128.892 137.949L128.892 137.949L124.892 137.899ZM124.906 64.035L120.906 64.0815L120.906 64.0831L124.906 64.035ZM131.107 53.6721L133.061 57.1624L133.062 57.1621L131.107 53.6721ZM195.103 16.8559L193.073 13.4094L193.073 13.4095L195.103 16.8559ZM205.643 16.6091L203.639 20.0708L203.639 20.0711L205.643 16.6091ZM405.459 132.026L403.451 135.485L403.452 135.486L405.459 132.026ZM410.736 140.887L414.736 140.861L414.736 140.861L410.736 140.887ZM411.109 293.654L407.109 293.673L407.109 293.675L411.109 293.654ZM404.6 303.902L406.586 307.374L406.588 307.373L404.6 303.902ZM282.345 374.08L280.367 370.603L280.367 370.603L282.345 374.08ZM276.016 385.242L280.016 385.178L280.016 385.178L276.016 385.242ZM276.277 449.03L272.277 449.079L272.277 449.08L276.277 449.03ZM270.672 458.956L272.627 462.446L272.627 462.446L270.672 458.956ZM205.758 495.857L203.822 492.357L203.821 492.358L205.758 495.857ZM195.501 495.922L193.563 499.421L193.563 499.421L195.501 495.922ZM131.352 459.409L133.298 455.914L133.297 455.913L131.352 459.409ZM124.904 448.304L128.904 448.322L128.904 448.322L124.904 448.304ZM124.898 298.053L120.898 298.071L120.898 298.071L124.898 298.053ZM131.476 286.985L129.497 283.509L129.496 283.509L131.476 286.985ZM245.624 221.261L247.624 224.725L247.625 224.725L245.624 221.261ZM141.114 309.18H137.114C137.114 329.162 137.051 347.264 137.22 365.357L141.219 365.32L145.219 365.283C145.051 347.239 145.114 329.2 145.114 309.18H141.114ZM141.219 365.32L137.22 365.359C137.235 366.925 137.729 368.509 138.356 369.772C138.954 370.977 139.993 372.536 141.603 373.483L143.631 370.035L145.659 366.588C145.856 366.704 145.889 366.778 145.806 366.676C145.735 366.589 145.63 366.434 145.522 366.216C145.416 366.002 145.332 365.779 145.278 365.581C145.222 365.372 145.219 365.27 145.219 365.281L141.219 365.32ZM143.631 370.035L141.6 373.482C157.382 382.78 173.305 391.851 190.49 401.727L192.484 398.259L194.477 394.791C177.255 384.894 161.394 375.859 145.661 366.589L143.631 370.035ZM192.484 398.259H196.484C196.484 378.506 196.548 360.201 196.366 341.903L192.366 341.943L188.366 341.983C188.548 360.229 188.484 378.468 188.484 398.259H192.484ZM192.366 341.943L196.366 341.903C196.348 340.191 195.696 338.565 195.003 337.374C194.309 336.179 193.222 334.816 191.758 333.951L189.725 337.396L187.692 340.841C187.595 340.784 187.623 340.78 187.738 340.907C187.844 341.024 187.969 341.191 188.087 341.394C188.205 341.597 188.287 341.787 188.335 341.932C188.387 342.091 188.367 342.106 188.366 341.983L192.366 341.943ZM189.725 337.396L191.761 333.953C176.199 324.753 160.503 315.762 143.115 305.717L141.114 309.18L139.113 312.644C156.536 322.709 172.173 331.667 187.69 340.839L189.725 337.396ZM191.441 475.503L195.192 476.891C195.467 476.15 195.653 475.736 195.849 475.262C195.983 474.937 196.397 474.002 196.402 472.861L192.402 472.845L188.402 472.83C188.403 472.475 188.469 472.212 188.501 472.103C188.523 472.029 188.531 472.024 188.455 472.207C188.326 472.52 188.033 473.187 187.69 474.114L191.441 475.503ZM192.402 472.845L196.402 472.863C196.459 459.987 195.26 448.272 196.779 436.467L192.811 435.957L188.844 435.446C187.246 447.869 188.454 461.085 188.402 472.828L192.402 472.845ZM192.811 435.957L196.779 436.467C197.826 428.329 196.843 421.476 193.343 415.751C189.874 410.078 184.266 406.064 177.172 402.906L175.545 406.56L173.918 410.214C180.222 413.021 184.218 416.162 186.518 419.924C188.787 423.636 189.738 428.499 188.844 435.446L192.811 435.957ZM175.545 406.56L177.172 402.906C165.845 397.861 155.715 390.907 143.093 383.684L141.106 387.156L139.12 390.628C150.992 397.422 162.119 404.959 173.918 410.214L175.545 406.56ZM141.106 387.156H137.106C137.106 406.911 137.016 425.084 137.25 443.246L141.249 443.194L145.249 443.143C145.016 425.05 145.106 406.965 145.106 387.156H141.106ZM141.249 443.194L137.25 443.247C137.275 445.15 138.067 446.939 138.87 448.225C139.691 449.539 140.905 450.939 142.415 451.829L144.447 448.383L146.479 444.938C146.484 444.941 146.456 444.925 146.397 444.877C146.34 444.829 146.266 444.762 146.18 444.672C146.005 444.488 145.821 444.252 145.655 443.987C145.489 443.721 145.373 443.474 145.304 443.282C145.23 443.074 145.247 443.031 145.249 443.141L141.249 443.194ZM144.447 448.383L142.414 451.828C157.806 460.911 173.361 469.738 189.45 478.972L191.441 475.503L193.432 472.033C177.298 462.774 161.817 453.989 146.48 444.939L144.447 448.383ZM395.455 153.362L393.459 149.896C376.074 159.9 360.131 169 344.317 178.305L346.345 181.753L348.374 185.2C364.144 175.921 380.031 166.853 397.45 156.829L395.455 153.362ZM346.345 181.753L344.321 178.303C342.892 179.141 341.793 180.455 341.073 181.64C340.363 182.806 339.658 184.444 339.64 186.2L343.64 186.241L347.639 186.282C347.638 186.439 347.61 186.452 347.66 186.307C347.705 186.177 347.786 185.997 347.908 185.797C348.029 185.598 348.16 185.428 348.275 185.305C348.399 185.172 348.443 185.159 348.37 185.202L346.345 181.753ZM343.64 186.241L339.64 186.2C339.453 204.505 339.52 222.818 339.52 242.755H343.52H347.52C347.52 222.779 347.453 204.532 347.639 186.281L343.64 186.241ZM343.52 242.755L345.514 246.222C362.989 236.171 379.123 226.969 395.114 217.54L393.082 214.094L391.051 210.649C375.109 220.049 359.035 229.216 341.526 239.287L343.52 242.755ZM393.082 214.094L395.11 217.543C396.771 216.566 397.773 214.931 398.321 213.745C398.91 212.472 399.342 210.921 399.354 209.425L395.355 209.391L391.355 209.357C391.355 209.381 391.347 209.511 391.292 209.732C391.239 209.945 391.158 210.174 391.06 210.388C390.959 210.606 390.866 210.749 390.812 210.819C390.745 210.905 390.808 210.792 391.055 210.646L393.082 214.094ZM395.355 209.391L399.354 209.426C399.513 191.332 399.455 173.226 399.455 153.362H395.455H391.455C391.455 173.262 391.513 191.308 391.355 209.356L395.355 209.391ZM208.623 476.198L210.622 479.662C227.975 469.644 244.079 460.407 260.072 450.997L258.044 447.55L256.015 444.102C240.06 453.49 224.002 462.7 206.623 472.734L208.623 476.198ZM258.044 447.55L260.071 450.998C261.501 450.157 262.492 448.825 263.094 447.735C263.706 446.626 264.263 445.135 264.277 443.571L260.277 443.537L256.277 443.503C256.278 443.367 256.299 443.354 256.263 443.472C256.231 443.577 256.173 443.719 256.089 443.87C256.006 444.022 255.924 444.133 255.87 444.195C255.845 444.224 255.838 444.228 255.853 444.214C255.868 444.202 255.921 444.158 256.017 444.101L258.044 447.55ZM260.277 443.537L264.277 443.569C264.424 425.253 264.375 406.93 264.375 388.729H260.375H256.375C256.375 406.959 256.424 425.231 256.277 443.505L260.277 443.537ZM260.375 388.729L260.856 384.758C260.342 384.696 260.102 384.631 259.543 384.527C259.331 384.488 258.887 384.408 258.388 384.401C257.858 384.394 256.967 384.462 256.038 384.986L258.003 388.47L259.967 391.955C259.221 392.376 258.547 392.404 258.284 392.401C258.147 392.399 258.056 392.387 258.038 392.385C258.019 392.382 258.029 392.383 258.09 392.394C258.153 392.406 258.227 392.421 258.346 392.444C258.456 392.466 258.596 392.494 258.75 392.522C259.064 392.581 259.446 392.646 259.893 392.7L260.375 388.729ZM258.003 388.47L256.027 384.992C240.529 393.793 224.997 402.602 209.577 411.607L211.595 415.061L213.612 418.515C228.981 409.54 244.468 400.756 259.978 391.949L258.003 388.47ZM211.595 415.061L209.58 411.605C208.207 412.406 207.083 413.645 206.313 414.819C205.574 415.946 204.767 417.614 204.748 419.457L208.748 419.498L212.748 419.539C212.746 419.755 212.701 419.812 212.749 419.685C212.79 419.575 212.872 419.406 213.003 419.206C213.133 419.008 213.279 418.829 213.416 418.69C213.561 418.543 213.637 418.501 213.609 418.517L211.595 415.061ZM208.748 419.498L204.748 419.455C204.552 437.787 204.623 456.13 204.623 476.198H208.623H212.623C212.623 456.088 212.552 437.816 212.748 419.541L208.748 419.498ZM319.743 256.479L321.74 253.013C304.816 243.26 288.679 233.783 272.301 224.783L270.374 228.288L268.448 231.794C284.732 240.743 300.744 250.147 317.745 259.945L319.743 256.479ZM270.374 228.288L272.296 224.781C271.06 224.103 269.769 223.953 268.776 223.957C267.752 223.962 266.747 224.133 265.859 224.354C264.091 224.795 262.335 225.551 261.001 226.296L262.95 229.788L264.899 233.281C265.719 232.824 266.818 232.36 267.794 232.116C268.279 231.995 268.619 231.958 268.811 231.957C269.035 231.956 268.831 232.004 268.452 231.796L270.374 228.288ZM262.95 229.788L260.996 226.298C246.089 234.64 231.313 243.231 216.557 251.739L218.555 255.204L220.554 258.669C235.343 250.141 250.054 241.589 264.903 233.279L262.95 229.788ZM218.555 255.204L216.557 251.739C193.637 264.954 170.729 278.186 147.68 291.493L149.68 294.958L151.68 298.422C174.731 285.113 197.636 271.883 220.553 258.669L218.555 255.204ZM149.68 294.958L146.77 297.702C147.131 298.085 147.296 298.296 147.633 298.682C147.89 298.976 148.455 299.629 149.309 300.124L151.315 296.663L153.321 293.203C153.534 293.326 153.67 293.446 153.724 293.496C153.763 293.533 153.758 293.533 153.66 293.422C153.51 293.25 153.089 292.743 152.59 292.213L149.68 294.958ZM151.315 296.663L149.3 300.119C160.573 306.692 171.528 311.84 181.411 319.067L183.772 315.838L186.133 312.609C175.829 305.075 163.784 299.304 153.33 293.208L151.315 296.663ZM183.772 315.838L181.411 319.067C187.707 323.671 193.787 326.104 200.252 326.048C206.64 325.993 212.815 323.51 219.319 319.481L217.212 316.081L215.106 312.68C209.192 316.344 204.49 318.011 200.183 318.049C195.955 318.085 191.523 316.551 186.133 312.609L183.772 315.838ZM217.212 316.081L219.318 319.482C252.493 298.938 286.68 280.159 321.741 259.944L319.743 256.479L317.745 253.014C282.877 273.118 248.422 292.05 215.107 312.68L217.212 316.081ZM149.069 61.8044L147.049 65.2569C153.931 69.2839 159.956 72.858 166.003 76.3405L168 72.8742L169.996 69.4078C163.978 65.9426 158.028 62.4123 151.089 58.352L149.069 61.8044ZM168 72.8742L166.003 76.3404C219.805 107.328 273.606 138.331 327.478 169.214L329.467 165.744L331.457 162.274C277.593 131.395 223.8 100.397 169.996 69.408L168 72.8742ZM329.467 165.744L327.478 169.214C328.815 169.981 330.668 170.929 332.536 171.555C333.468 171.867 334.542 172.146 335.642 172.236C336.694 172.322 338.168 172.269 339.581 171.501L337.672 167.986L335.763 164.471C336.268 164.197 336.568 164.285 336.294 164.263C336.067 164.244 335.663 164.165 335.077 163.969C333.909 163.578 332.568 162.911 331.457 162.274L329.467 165.744ZM337.672 167.986L339.582 171.501C356.014 162.57 372.145 153.037 389.261 143.165L387.262 139.7L385.263 136.235C368.049 146.164 352.075 155.606 335.762 164.472L337.672 167.986ZM387.262 139.7L389.273 136.242C384.244 133.318 380.431 131.083 376.612 128.884L374.616 132.351L372.621 135.817C376.42 138.005 380.191 140.215 385.251 143.158L387.262 139.7ZM374.616 132.351L376.613 128.885C320.631 96.6456 264.654 64.3837 208.606 32.2471L206.616 35.7172L204.627 39.1872C260.666 71.3191 316.635 103.576 372.62 135.817L374.616 132.351ZM206.616 35.7172L208.606 32.247C207.268 31.4801 205.427 30.5538 203.567 29.9493C202.64 29.6477 201.572 29.381 200.479 29.3019C199.432 29.2261 197.977 29.2937 196.584 30.0536L198.5 33.5651L200.415 37.0766C199.925 37.344 199.635 37.2617 199.902 37.281C200.124 37.2971 200.52 37.3707 201.094 37.5574C202.239 37.9295 203.553 38.5718 204.627 39.1874L206.616 35.7172ZM198.5 33.5651L196.585 30.053C180.143 39.0159 163.995 48.5633 147.068 58.3407L149.069 61.8044L151.069 65.2681C168.091 55.436 184.088 45.9772 200.414 37.0772L198.5 33.5651ZM395.445 232.7L395.842 228.72C395.281 228.664 394.982 228.613 394.651 228.566C394.54 228.55 394.184 228.497 393.797 228.495C393.349 228.492 392.501 228.548 391.605 229.062L393.596 232.532L395.587 236.001C395.202 236.221 394.82 236.351 394.478 236.421C394.156 236.487 393.898 236.495 393.753 236.494C393.609 236.494 393.51 236.483 393.492 236.481C393.471 236.479 393.473 236.479 393.526 236.486C393.74 236.517 394.273 236.603 395.048 236.68L395.445 232.7ZM393.596 232.532L391.603 229.063C331.029 263.858 270.453 298.661 209.936 333.568L211.935 337.033L213.933 340.498C274.444 305.595 335.013 270.796 395.588 236L393.596 232.532ZM211.935 337.033L209.936 333.568C208.708 334.277 207.551 335.342 206.682 336.458C205.904 337.457 204.825 339.172 204.8 341.216L208.8 341.265L212.799 341.314C212.795 341.685 212.696 341.854 212.733 341.773C212.76 341.715 212.838 341.573 212.994 341.374C213.144 341.181 213.326 340.986 213.514 340.817C213.708 340.643 213.859 340.541 213.933 340.498L211.935 337.033ZM208.8 341.265L204.8 341.219C204.588 359.782 204.661 378.355 204.661 396.641H208.661H212.661C212.661 378.313 212.588 359.813 212.799 341.311L208.8 341.265ZM208.661 396.641L207.962 400.58C208.555 400.685 208.874 400.765 209.215 400.84C209.323 400.864 209.695 400.95 210.101 400.981C210.555 401.015 211.55 401.029 212.593 400.422L210.582 396.964L208.571 393.507C209.027 393.241 209.484 393.102 209.885 393.039C210.257 392.98 210.552 392.992 210.706 393.004C210.862 393.016 210.968 393.035 210.984 393.038C211.005 393.042 211.002 393.042 210.945 393.03C210.72 392.98 210.168 392.846 209.359 392.703L208.661 396.641ZM210.582 396.964L212.573 400.433C273.155 365.652 333.746 330.877 394.231 295.914L392.229 292.451L390.228 288.988C329.755 323.944 269.174 358.713 208.59 393.495L210.582 396.964ZM392.229 292.451L394.229 295.915C396.026 294.878 397.235 293.115 397.955 291.683C398.705 290.192 399.283 288.348 399.307 286.567L395.307 286.513L391.308 286.46C391.304 286.715 391.174 287.36 390.808 288.088C390.641 288.421 390.467 288.684 390.32 288.862C390.161 289.055 390.114 289.053 390.23 288.986L392.229 292.451ZM395.307 286.513L399.307 286.567C399.545 268.668 399.445 250.754 399.445 232.7H395.445H391.445C391.445 250.814 391.544 268.633 391.308 286.46L395.307 286.513ZM327.902 242.836H331.902C331.902 225.028 331.423 209.336 332.104 193.585L328.108 193.413L324.111 193.24C323.42 209.216 323.902 225.353 323.902 242.836H327.902ZM328.108 193.413L332.104 193.586C332.296 189.138 331.589 185.339 329.528 182.033C327.511 178.796 324.47 176.482 320.906 174.454L318.928 177.931L316.95 181.408C320.023 183.156 321.741 184.664 322.739 186.265C323.694 187.796 324.258 189.851 324.111 193.24L328.108 193.413ZM318.928 177.931L320.907 174.455C265.995 143.199 211.329 111.523 156.554 79.9717L154.557 83.4378L152.56 86.9039C207.312 118.442 262.013 150.138 316.95 181.407L318.928 177.931ZM154.557 83.4378L156.555 79.9725C152.522 77.6469 148.406 75.3889 143.038 72.377L141.08 75.8654L139.123 79.3538C144.581 82.4162 148.577 84.6072 152.559 86.903L154.557 83.4378ZM141.08 75.8654H137.08C137.08 94.4406 137.284 111.296 136.958 128.18L140.957 128.257L144.956 128.335C145.284 111.349 145.08 94.312 145.08 75.8654H141.08ZM140.957 128.257L136.958 128.179C136.9 131.15 137.321 133.928 138.758 136.439C140.192 138.944 142.379 140.728 144.983 142.209L146.96 138.732L148.937 135.255C147.03 134.17 146.165 133.275 145.701 132.464C145.239 131.658 144.914 130.482 144.956 128.335L140.957 128.257ZM146.96 138.732L144.982 142.209C183.853 164.319 222.57 186.702 261.341 209.033L263.337 205.567L265.334 202.101C226.578 179.778 187.833 157.38 148.938 135.255L146.96 138.732ZM263.337 205.567L261.341 209.033C282.381 221.151 303.397 233.307 325.902 246.3L327.902 242.836L329.902 239.372C307.404 226.383 286.378 214.222 265.334 202.101L263.337 205.567ZM251.859 217.347L253.856 213.882C228.613 199.328 204.682 185.531 180.749 171.739L178.752 175.204L176.755 178.67C200.687 192.462 224.617 206.259 249.861 220.812L251.859 217.347ZM178.752 175.204L180.749 171.738C164.786 162.543 148.807 153.195 132.67 144.167L130.717 147.658L128.764 151.149C144.843 160.144 160.73 169.439 176.755 178.67L178.752 175.204ZM130.717 147.658L132.67 144.167C130.911 143.184 130.09 142.395 129.641 141.673C129.216 140.988 128.867 139.946 128.892 137.949L124.892 137.899L120.893 137.848C120.855 140.825 121.369 143.516 122.846 145.895C124.3 148.235 126.423 149.84 128.764 151.149L130.717 147.658ZM124.892 137.899L128.892 137.949C129.202 113.297 129.202 88.6375 128.906 63.9869L124.906 64.035L120.906 64.0831C121.202 88.6696 121.202 113.263 120.893 137.848L124.892 137.899ZM124.906 64.035L128.906 63.9884C128.881 61.8408 129.243 60.6984 129.719 59.9263C130.216 59.1191 131.124 58.2467 133.061 57.1624L131.107 53.6721L129.153 50.1818C126.634 51.5923 124.411 53.2881 122.906 55.732C121.38 58.211 120.87 61.0026 120.906 64.0815L124.906 64.035ZM131.107 53.6721L133.062 57.1621C154.565 45.1202 175.909 32.8059 197.133 20.3022L195.103 16.8559L193.073 13.4095C171.89 25.8887 150.597 38.1733 129.153 50.1821L131.107 53.6721ZM195.103 16.8559L197.133 20.3023C198.823 19.3071 199.774 19.0334 200.467 19.003C201.098 18.9753 202.011 19.1284 203.639 20.0708L205.643 16.6091L207.647 13.1475C205.226 11.7459 202.785 10.8935 200.116 11.0107C197.51 11.1251 195.216 12.1468 193.073 13.4094L195.103 16.8559ZM205.643 16.6091L203.639 20.0711C270.238 58.6166 336.919 96.8695 403.451 135.485L405.459 132.026L407.467 128.566C340.948 89.9584 274.191 51.6611 207.646 13.1471L205.643 16.6091ZM405.459 132.026L403.452 135.486C403.999 135.803 404.88 136.661 405.655 137.955C406.437 139.261 406.733 140.379 406.737 140.913L410.736 140.887L414.736 140.861C414.72 138.368 413.705 135.826 412.518 133.843C411.323 131.849 409.575 129.79 407.466 128.566L405.459 132.026ZM410.736 140.887L406.737 140.912C407.06 191.876 406.869 242.658 407.109 293.673L411.109 293.654L415.109 293.636C414.87 242.804 415.06 191.74 414.736 140.861L410.736 140.887ZM411.109 293.654L407.109 293.675C407.12 295.78 406.69 296.871 406.171 297.615C405.582 298.461 404.569 299.31 402.612 300.431L404.6 303.902L406.588 307.373C408.868 306.067 411.123 304.504 412.736 302.188C414.419 299.771 415.126 296.951 415.109 293.634L411.109 293.654ZM404.6 303.902L402.613 300.43C361.784 323.791 321.217 347.36 280.367 370.603L282.345 374.08L284.323 377.557C325.156 354.323 365.846 330.684 406.586 307.374L404.6 303.902ZM282.345 374.08L280.367 370.603C277.587 372.185 275.314 374.071 273.843 376.701C272.377 379.321 271.968 382.216 272.017 385.305L276.016 385.242L280.016 385.178C279.978 382.83 280.314 381.52 280.825 380.607C281.33 379.704 282.264 378.728 284.323 377.557L282.345 374.08ZM276.016 385.242L272.017 385.305C272.185 395.897 272.185 406.497 272.176 417.132C272.167 427.756 272.148 438.417 272.277 449.079L276.277 449.03L280.277 448.982C280.148 438.383 280.167 427.779 280.176 417.139C280.185 406.508 280.185 395.845 280.016 385.178L276.016 385.242ZM276.277 449.03L272.277 449.08C272.302 451.11 272.012 452.213 271.604 452.954C271.21 453.67 270.463 454.488 268.716 455.467L270.672 458.956L272.627 462.446C275.178 461.016 277.263 459.262 278.612 456.813C279.947 454.389 280.311 451.732 280.277 448.981L276.277 449.03ZM270.672 458.956L268.717 455.467C246.789 467.75 225.688 480.261 203.822 492.357L205.758 495.857L207.695 499.357C229.384 487.359 251.125 474.491 272.627 462.446L270.672 458.956ZM205.758 495.857L203.821 492.358C203.252 492.673 202.076 492.988 200.591 493C199.098 493.011 197.96 492.711 197.439 492.422L195.501 495.922L193.563 499.421C195.705 500.607 198.353 501.017 200.653 500.999C202.96 500.982 205.581 500.527 207.696 499.356L205.758 495.857ZM195.501 495.922L197.439 492.423C186.713 486.48 176.078 480.36 165.415 474.216C154.761 468.078 144.077 461.914 133.298 455.914L131.352 459.409L129.407 462.904C140.125 468.87 150.755 475.002 161.421 481.148C172.078 487.288 182.768 493.441 193.563 499.421L195.501 495.922ZM131.352 459.409L133.297 455.913C131.217 454.756 130.276 453.799 129.763 452.909C129.246 452.011 128.893 450.706 128.904 448.322L124.904 448.304L120.904 448.285C120.89 451.4 121.331 454.297 122.83 456.9C124.334 459.513 126.629 461.359 129.408 462.904L131.352 459.409ZM124.904 448.304L128.904 448.322C129.135 398.227 129.133 348.129 128.898 298.034L124.898 298.053L120.898 298.071C121.133 348.142 121.135 398.215 120.904 448.285L124.904 448.304ZM124.898 298.053L128.898 298.034C128.887 295.694 129.273 294.415 129.811 293.528C130.367 292.613 131.366 291.651 133.456 290.46L131.476 286.985L129.496 283.509C126.825 285.031 124.523 286.824 122.973 289.376C121.407 291.957 120.883 294.856 120.898 298.071L124.898 298.053ZM131.476 286.985L133.455 290.461C171.625 268.728 209.614 246.675 247.624 224.725L245.624 221.261L243.624 217.797C205.592 239.759 167.639 261.792 129.497 283.509L131.476 286.985ZM245.624 221.261L247.625 224.725C249.383 223.709 251.178 222.502 253.99 220.732L251.859 217.347L249.727 213.962C246.63 215.912 245.214 216.879 243.623 217.798L245.624 221.261Z" fill="#CCCCCC" mask="url(#path-2-outside-1_3632_51843)"/>
</svg>
